<?xml version="1.0" encoding="UTF-8" standalone="no"?><!DOCTYPE svg PUBLIC "-//W3C//DTD SVG 1.1//EN" "http://www.w3.org/Graphics/SVG/1.1/DTD/svg11.dtd"><svg width="100%" height="100%" viewBox="0 0 400 400" version="1.1" xmlns="http://www.w3.org/2000/svg" xmlns:xlink="http://www.w3.org/1999/xlink" xml:space="preserve" xmlns:serif="http://www.serif.com/" style="fill-rule:evenodd;clip-rule:evenodd;stroke-linejoin:round;stroke-miterlimit:2;"><g id="Logo"><circle cx="200" cy="200" r="200" style="fill:#a3bffa;"/><g><text x="81.92px" y="119.411px" style="font-family:'MyriadPro-Bold', 'Myriad Pro', sans-serif;font-weight:700;font-size:96px;fill:#fff;">DoBu</text><path d="M316.237,198.192c-0.352,-0.125 -0.62,-0.489 -0.92,-0.754c0.257,-0.19 0.527,-0.548 0.767,-0.529c0.328,0.027 0.63,0.343 1.154,0.664c-0.491,0.319 -0.824,0.684 -1.001,0.619Zm-196.892,11.641l-0.343,0.147c0.158,-0.095 0.313,-0.175 0.343,-0.147Zm152.86,-33.556c0.044,0.019 0.115,0.04 0.125,0.074c0.181,0.66 0.694,1.717 0.467,1.912c-0.802,0.69 -1.828,1.192 -2.849,1.499c-0.191,0.059 -0.827,-1.064 -1.116,-1.706c-0.245,-0.54 -0.284,-1.172 -0.472,-2.043c1.133,-0.799 2.489,-0.3 3.845,0.264Zm25.359,13.151c1.028,-1.625 1.994,-3.289 2.988,-4.936c0.125,0.051 0.248,0.102 0.374,0.154c-0.388,2.108 -0.778,4.217 -1.201,6.502c-0.352,0 -0.841,0.057 -1.313,-0.011c-1.064,-0.154 -1.55,-0.603 -0.848,-1.709Zm41.434,8.932c-0.401,-1.329 -0.532,-1.378 -1.938,-1.44c-4.401,-0.196 -8.582,0.919 -12.735,2.146c-1.419,0.419 -2.48,0.11 -3.269,-1.097c-0.666,-1.021 -1.307,-1.955 -2.778,-1.301c-0.199,0.088 -0.587,-0.271 -0.892,-0.405c-0.592,-0.257 -1.168,-0.602 -1.79,-0.729c-0.939,-0.192 -1.927,-0.399 -2.863,-0.301c-2.791,0.289 -4.871,-0.623 -6.181,-3.169c-0.529,-1.032 -1.621,-2.021 -1.623,-3.032c-0.006,-2.749 0.013,-5.585 1.997,-7.918c0.513,-0.602 0.592,-1.556 0.923,-2.325c0.567,-1.315 0.826,-3.186 1.836,-3.8c2.401,-1.461 2.699,-4.027 3.842,-6.078c1.272,-2.282 0.257,-4.817 -0.461,-7.176c-0.671,-2.205 -1.782,-4.342 -2.06,-6.587c-0.527,-4.253 -6.866,-8.331 -10.124,-8.89c-2.014,-0.345 -3.992,-0.906 -6.009,-1.231c-1.353,-0.219 -2.748,-0.183 -4.123,-0.284c-0.726,-0.053 -1.449,-0.131 -2.167,-0.24c-1.075,-0.165 -2.363,-0.842 -3.179,-0.468c-2.963,1.357 -5.908,2.901 -7.057,6.354c-0.316,0.954 -0.78,1.86 -1.072,2.82c-0.829,2.736 -1.774,5.454 -2.355,8.245c-0.543,2.596 -0.638,5.283 -1.01,7.918c-0.242,1.702 -1.514,3.063 -2.794,3.141c-1.626,0.099 -3.326,0.497 -4.865,0.167c-1.916,-0.409 -2.997,0.48 -4.001,1.684c-0.734,0.881 -1.58,0.988 -2.557,0.814c-0.739,-0.133 -1.473,-0.333 -2.196,-0.544c-5.166,-1.513 -10.342,-2.992 -15.486,-4.568c-4.396,-1.346 -8.828,-1.841 -13.411,-1.254c-1.348,0.172 -2.862,0.086 -4.127,-0.365c-2.12,-0.756 -4.087,-1.932 -6.143,-2.875c-4.274,-1.959 -8.601,-3.676 -13.466,-3.372c-1.017,0.064 -2.079,-0.306 -3.095,-0.574c-4.847,-1.28 -9.66,-2.698 -14.537,-3.848c-2.077,-0.49 -4.356,-0.164 -6.408,-0.713c-3.374,-0.901 -6.848,-1.61 -9.886,-3.541c-1.802,-1.147 -3.7,-2.15 -5.595,-3.139c-0.479,-0.25 -1.22,-0.438 -1.661,-0.245c-2.748,1.204 -5.44,2.536 -8.164,3.797c-0.434,0.201 -0.941,0.387 -1.403,0.363c-2.888,-0.15 -4.169,1.269 -3.969,4.232c0.103,1.53 -0.088,3.079 -0.151,4.619c-0.042,1.003 -0.35,2.084 -0.073,2.987c0.316,1.03 0.958,2.416 1.799,2.728c1.405,0.52 1.879,1.301 2.263,2.592c0.376,1.264 1.454,1.547 2.671,0.999c0.345,-0.155 0.687,-0.318 1.104,-0.512c-0.321,1.785 0.163,2.449 1.77,2.731c1.833,0.322 3.644,0.786 5.486,1.025c2.432,0.315 4.935,0.88 7.316,0.589c2.841,-0.346 5.47,-0.293 8.091,0.835c0.875,0.377 1.829,0.569 2.711,0.934c3.544,1.466 7.332,2.271 10.325,5.066c3.924,3.665 8.167,6.989 12.304,10.424c2.666,2.214 5.209,4.642 8.121,6.478c5.099,3.215 10.442,6.047 15.678,9.045c0.88,0.503 1.739,1.038 2.61,1.558c-0.038,0.147 -0.074,0.293 -0.112,0.44c-0.592,0.203 -1.171,0.491 -1.779,0.594c-1.646,0.276 -2.442,1.253 -2.187,2.846c0.299,1.862 0.814,3.689 1.232,5.532c0.163,0.722 0.436,1.444 0.448,2.169c0.02,1.2 -0.23,2.406 -0.181,3.602c0.052,1.289 -0.446,2.028 -1.688,2.238c-2.408,0.406 -4.809,0.952 -7.235,1.112c-1.949,0.129 -4.021,0.665 -5.882,-0.503c-3.119,-1.958 -6.2,-1.496 -9.318,0.028c-0.481,0.235 -1.172,0.297 -1.689,0.157c-1.298,-0.352 -2.523,-0.99 -3.829,-1.29c-3.07,-0.706 -6.157,-1.355 -9.261,-1.891c-3.404,-0.588 -6.831,-1.057 -10.257,-1.51c-1.569,-0.208 -3.161,-0.351 -4.742,-0.343c-1.476,0.008 -2.71,-0.173 -3.257,-1.781c-0.413,-1.215 -1.37,-1.599 -2.67,-1.671c0.173,0.845 0.323,1.579 0.515,2.515c-1.011,-0.461 -1.721,-0.891 -2.491,-1.119c-3.884,-1.152 -7.785,-2.252 -11.679,-3.372c-0.096,-0.027 -0.182,-0.084 -0.273,-0.128c-4.084,-1.941 -8.205,-3.81 -12.245,-5.841c-7.354,-3.695 -15.273,-4.72 -23.334,-5.204c-0.967,-0.058 -1.912,-0.502 -2.863,-0.778c-1.867,-0.542 -3.715,-1.171 -5.608,-1.594c-0.601,-0.134 -1.411,0.124 -1.973,0.459c-2.584,1.538 -4.213,1.356 -6.237,-0.835c-2.928,-3.169 -3.979,-3.337 -7.849,-1.267c-0.443,0.238 -0.895,0.462 -1.35,0.675c-2.446,1.143 -4.948,1.715 -7.559,0.588c-1.059,-0.457 -2.088,-0.99 -3.106,-1.533c-1.597,-0.849 -3.252,-1.277 -5.081,-1.045c-4.03,0.513 -8.069,0.953 -12.098,1.466c-1.704,0.218 -3.413,0.518 -4.452,2.142c-2.41,3.765 -0.787,10.962 4.917,12.027c1.384,0.259 2.779,0.521 4.116,0.949c0.928,0.296 2.009,0.673 2.596,1.372c1.739,2.069 3.495,4.185 4.824,6.52c2.148,3.774 4.107,4.893 8.498,4.335c1.012,-0.129 2.152,-0.082 3.098,0.258c3.023,1.089 5.486,0.343 7.734,-1.81c0.391,-0.374 1.286,-0.57 1.803,-0.402c1.524,0.498 3.027,1.122 4.441,1.879c1.864,0.996 3.746,1.285 5.83,0.955c0.674,-0.107 1.622,0.204 2.145,0.665c4.721,4.168 10.179,7.17 15.748,9.975c2.242,1.129 4.197,2.496 5.823,4.425c1.218,1.444 2.467,3.043 4.056,3.957c3.608,2.074 7.395,3.856 11.183,5.594c3.423,1.57 7.029,2.754 10.403,4.415c4.917,2.42 9.573,5.396 14.568,7.624c6.791,3.029 13.777,5.631 20.729,8.285c1.429,0.546 2.008,1.31 2.039,2.728c0.024,1.103 -0,2.23 0.217,3.302c1.457,7.202 4.955,13.352 9.986,18.625c2.035,2.133 4.335,4.015 6.707,6.188c-2.494,0.221 -4.187,1.436 -5.101,3.698c-1.137,2.811 -0.69,5.394 0.951,7.88c1.188,1.8 2.677,3.537 3.32,5.532c1.185,3.675 3.522,6.53 5.792,9.46c0.498,0.642 1.461,1.22 2.253,1.282c2.317,0.184 4.668,-0.027 6.643,1.615c0.329,0.274 0.967,0.164 1.454,0.267c0.432,0.092 0.855,0.229 1.278,0.354c1.116,0.328 2.222,0.682 3.343,0.987c1.411,0.384 3.007,0.444 4.192,1.179c1.001,0.621 1.803,0.829 2.903,0.708c0.832,-0.092 1.782,-0.079 2.532,0.236c3.66,1.542 7.221,3.33 10.91,4.792c8.358,3.313 17.096,3.879 25.97,3.303c2.461,-0.16 4.939,-0.121 7.027,-1.787c2.903,-2.32 4.712,-5.356 5.629,-8.883c0.92,-3.526 0.088,-6.57 -3.053,-8.76c-0.489,-0.341 -0.846,-0.865 -1.31,-1.248c-2.546,-2.105 -5.111,-4.19 -7.663,-6.289c-0.335,-0.276 -0.908,-0.595 -0.906,-0.89c0.014,-1.307 -0.998,-1.613 -1.811,-2.171c-0.524,-0.359 -0.961,-0.845 -1.436,-1.274c0.139,-0.154 0.278,-0.309 0.415,-0.463c1.891,1.328 3.782,2.656 5.673,3.985c0.066,-0.083 0.131,-0.165 0.194,-0.248c-7.905,-7.164 -15.811,-14.328 -23.937,-21.692c2.273,-1.007 3.081,-2.883 3.16,-4.938c0.103,-2.733 1.656,-4.584 3.119,-6.646c1.591,-2.24 4.025,-2.223 6.191,-2.761c1.597,-0.398 3.392,0.084 5.073,-0.081c8.326,-0.818 16.46,0.052 24.442,2.502c1.545,0.475 2.055,0.252 2.314,-1.354c0.358,-2.229 0.53,-4.487 0.797,-6.731c0.147,-1.252 -0.464,-1.756 -1.635,-2.062c-11.444,-2.993 -23.126,-4.19 -34.904,-4.738c-1.883,-0.087 -3.763,-0.231 -5.883,-0.363c0.573,-1.195 0.802,-2.414 1.536,-3.067c2.399,-2.135 4.975,-4.071 7.494,-6.069c5.441,-4.314 10.898,-8.604 15.396,-13.958c0.267,-0.316 0.652,-0.531 1.206,-0.971c0.406,2.619 2.158,3.696 4.142,4.422c1.866,0.683 2.827,1.998 3.561,3.776c0.535,1.295 1.31,2.788 2.423,3.492c2.953,1.87 6.26,2.645 9.581,0.872c3.28,-1.751 6.604,-3.486 9.63,-5.622c3.354,-2.366 5.793,-5.524 6.355,-9.848c0.494,-3.811 -0.625,-7.13 -2.581,-9.954c0.18,-0.56 0.401,-0.877 0.346,-1.136c-0.215,-1.031 -0.622,-2.031 -0.761,-3.068c-0.164,-1.246 -0.382,-2.572 -0.131,-3.771c0.693,-3.337 1.605,-6.631 2.462,-9.933c0.319,-1.232 -0.044,-2.053 -1.239,-2.516c-3.278,-1.268 -6.541,-2.567 -9.832,-3.802c-0.639,-0.24 -1.111,-0.382 -0.873,-1.227c0.403,-1.451 0.824,-2.907 1.077,-4.389c0.292,-1.689 1.335,-2.355 2.866,-2.214c2.134,0.196 3.91,-0.7 5.747,-1.52c0.633,-0.282 1.323,-0.581 1.994,-0.6c3.733,-0.108 7.439,0.098 11.041,1.241c0.81,0.257 1.662,0.386 2.669,0.614c-1.482,-3.89 1.806,-3.311 3.411,-4.147Z" style="fill:#fff;fill-rule:nonzero;"/></g></g></svg>
